<svg width="16" height="17" viewBox="0 0 16 17" fill="none" xmlns="http://www.w3.org/2000/svg">
<g id="arrow-left-right" clip-path="url(#clip0_3934_96911)">
<path id="Vector" fill-rule="evenodd" clip-rule="evenodd" d="M0.999917 12.0001C0.999917 12.1328 1.0526 12.2599 1.14636 12.3537C1.24013 12.4475 1.36731 12.5001 1.49992 12.5001H13.2929L10.1459 15.6461C10.052 15.74 9.99929 15.8674 9.99929 16.0001C9.99929 16.1329 10.052 16.2603 10.1459 16.3541C10.2398 16.448 10.3671 16.5008 10.4999 16.5008C10.6327 16.5008 10.76 16.448 10.8539 16.3541L14.8539 12.3541C14.9005 12.3077 14.9374 12.2525 14.9626 12.1918C14.9878 12.131 15.0008 12.0659 15.0008 12.0001C15.0008 11.9344 14.9878 11.8693 14.9626 11.8085C14.9374 11.7478 14.9005 11.6926 14.8539 11.6461L10.8539 7.64614C10.76 7.55226 10.6327 7.49951 10.4999 7.49951C10.3671 7.49951 10.2398 7.55226 10.1459 7.64614C10.052 7.74003 9.99929 7.86737 9.99929 8.00014C9.99929 8.13292 10.052 8.26026 10.1459 8.35414L13.2929 11.5001H1.49992C1.36731 11.5001 1.24013 11.5528 1.14636 11.6466C1.0526 11.7404 0.999917 11.8675 0.999917 12.0001ZM14.9999 5.00014C14.9999 5.13275 14.9472 5.25993 14.8535 5.3537C14.7597 5.44746 14.6325 5.50014 14.4999 5.50014H2.70692L5.85392 8.64614C5.9004 8.69263 5.93728 8.74782 5.96244 8.80856C5.9876 8.8693 6.00055 8.9344 6.00055 9.00014C6.00055 9.06589 5.9876 9.13099 5.96244 9.19173C5.93728 9.25247 5.9004 9.30766 5.85392 9.35414C5.80743 9.40063 5.75224 9.43751 5.6915 9.46267C5.63076 9.48783 5.56566 9.50077 5.49992 9.50077C5.43417 9.50077 5.36907 9.48783 5.30833 9.46267C5.24759 9.43751 5.1924 9.40063 5.14592 9.35414L1.14592 5.35414C1.09935 5.3077 1.06241 5.25252 1.0372 5.19178C1.012 5.13103 0.999023 5.06591 0.999023 5.00014C0.999023 4.93438 1.012 4.86926 1.0372 4.80851C1.06241 4.74776 1.09935 4.69259 1.14592 4.64614L5.14592 0.646143C5.2398 0.552257 5.36714 0.499512 5.49992 0.499512C5.63269 0.499512 5.76003 0.552257 5.85392 0.646143C5.9478 0.74003 6.00055 0.867368 6.00055 1.00014C6.00055 1.13292 5.9478 1.26026 5.85392 1.35414L2.70692 4.50014H14.4999C14.6325 4.50014 14.7597 4.55282 14.8535 4.64659C14.9472 4.74036 14.9999 4.86754 14.9999 5.00014Z" fill="#3464BC"/>
</g>
<defs>
<clipPath id="clip0_3934_96911">
<rect width="16" height="16" fill="white" transform="translate(0 0.5)"/>
</clipPath>
</defs>
</svg>
