<svg width="108" height="32" viewBox="0 0 108 32" fill="none" xmlns="http://www.w3.org/2000/svg">
<g id="Group">
<path id="Vector" d="M8.63585 6.06592C3.87389 6.06592 0 10.1496 0 15.1685C0 20.1883 3.87389 24.2728 8.63585 24.2728C10.5493 24.2728 12.3858 23.6062 13.8795 22.403V24.1752L17.2717 24.1801V15.1685C17.2717 10.1496 13.3978 6.06592 8.63585 6.06592ZM13.8622 15.1685C13.8622 18.2069 11.5181 20.6779 8.63585 20.6779C5.75357 20.6779 3.40946 18.206 3.40946 15.1685C3.40946 12.131 5.75357 9.65916 8.63585 9.65916C11.5173 9.65999 13.8622 12.131 13.8622 15.1685Z" fill="#012169"/>
<path id="Vector_2" d="M71.5728 19.4713V0H68.1798C68.1798 0 68.1798 18.8428 68.1798 19.4713C68.1798 20.1006 67.9852 21.9126 69.4672 23.3408C70.4486 24.2868 72.1235 24.2728 72.7377 24.2728H73.4893V20.7002H72.7377C72.0952 20.6994 71.5728 20.1486 71.5728 19.4713Z" fill="#012169"/>
<path id="Vector_3" d="M85.433 15.2661C85.433 15.3629 85.433 15.4629 85.4369 15.5646L85.4338 15.7582H85.4346C85.4354 15.821 85.4354 16.1336 85.4354 17.3079C85.4354 19.4531 83.5204 20.6398 82.1969 20.6398C80.3494 20.6398 78.9687 18.9338 78.9687 17.4088V6.06592H75.5757L75.5765 17.4733C75.5765 20.6456 78.3026 24.1934 81.9514 24.1934L82.0612 24.1917L82.1969 24.1934C83.2999 24.1934 84.4908 23.8585 85.4338 23.3176L85.4346 25.2279C85.375 27.3177 83.722 28.4135 82.1977 28.4457C80.1172 28.4896 78.2909 25.3611 78.2909 25.3611L75.7828 26.9919L75.964 27.4757C76.7815 29.6548 79.004 32.0001 81.9514 32.0001L82.062 31.9984L82.1977 32.0001C84.3567 32.0001 88.5201 30.5992 88.8276 25.2503V6.06592H85.433V15.2661Z" fill="#012169"/>
<path id="Vector_4" d="M98.9918 6.06592C94.2299 6.06592 90.356 10.1496 90.356 15.1685C90.356 20.1883 94.2299 24.2728 98.9918 24.2728C100.905 24.2728 102.742 23.6062 104.235 22.403V24.1752L107.627 24.1802V15.1685C107.627 10.1496 103.753 6.06592 98.9918 6.06592ZM104.217 15.1685C104.217 18.2069 101.873 20.6779 98.991 20.6779C96.1095 20.6779 93.7646 18.206 93.7646 15.1685C93.7646 12.131 96.1087 9.65916 98.991 9.65916C101.873 9.65999 104.217 12.131 104.217 15.1685Z" fill="#012169"/>
<path id="Vector_5" d="M31.1332 19.2894C30.1792 20.1776 28.9515 20.6671 27.6766 20.6671C24.7951 20.6671 22.451 18.1961 22.451 15.1586C22.451 12.1211 24.7951 9.65008 27.6766 9.65008C28.753 9.65008 29.7956 10.0024 30.668 10.6458L32.408 7.53962C31.0092 6.57288 29.372 6.04443 27.6766 6.04443C22.9092 6.04443 19.0298 10.133 19.0298 15.1594C19.0298 20.185 22.9084 24.2736 27.6766 24.2736C29.8341 24.2736 31.8997 23.4317 33.4946 21.9018L34.0806 21.3395L31.6659 18.7949L31.1332 19.2894Z" fill="#012169"/>
<path id="Vector_6" d="M46.0697 19.2894C45.1157 20.1776 43.888 20.6671 42.6131 20.6671C39.7317 20.6671 37.3875 18.1961 37.3875 15.1586C37.3875 12.1211 39.7317 9.65008 42.6131 9.65008C43.6895 9.65008 44.7321 10.0024 45.6045 10.6458L47.3445 7.53962C45.9457 6.57288 44.3085 6.04443 42.6131 6.04443C37.8457 6.04443 33.9663 10.133 33.9663 15.1594C33.9663 20.185 37.8449 24.2736 42.6131 24.2736C44.7705 24.2736 46.8362 23.4317 48.4311 21.9018L49.0171 21.3395L46.6024 18.7949L46.0697 19.2894Z" fill="#012169"/>
<path id="Vector_7" d="M61.4073 18.8296C60.4439 19.9733 59.0412 20.6953 57.4761 20.6953C54.8292 20.6953 52.6397 18.6336 52.2717 15.9509H66.0343V15.1561C66.0343 10.1479 62.1699 6.07422 57.4189 6.07422C52.6687 6.07422 48.8042 10.1479 48.8042 15.1561C48.8042 16.3892 49.1157 17.8769 49.4648 18.6369C49.5409 18.8031 49.5848 18.8974 49.606 18.9421C50.971 22.0871 53.9812 24.2728 57.4769 24.2728C59.9795 24.2728 62.231 23.1522 63.8103 21.3618L61.4073 18.8296ZM57.4048 9.23578C59.2813 9.23578 61.5281 10.1934 62.4005 13.0655L52.409 13.0664C53.2524 10.1934 55.5282 9.23578 57.4048 9.23578ZM49.482 18.6435C49.493 18.6708 49.504 18.6973 49.515 18.7238C49.4954 18.6774 49.482 18.6435 49.482 18.6435Z" fill="#012169"/>
</g>
</svg>
